<svg width="27" height="30" viewBox="0 0 27 30" fill="none" xmlns="http://www.w3.org/2000/svg">
<path d="M7.27054 0.119995C6.0927 0.119995 5.14114 1.07169 5.14114 2.2497V15.028H3.01173C1.83389 15.028 0.882324 15.9797 0.882324 17.1577C0.882324 18.3357 1.83389 19.2874 3.01173 19.2874H5.14114V21.4171H3.01173C1.83389 21.4171 0.882324 22.3688 0.882324 23.5468C0.882324 24.7248 1.83389 25.6765 3.01173 25.6765H5.14114V27.8062C5.14114 28.9842 6.0927 29.9359 7.27054 29.9359C8.44839 29.9359 9.39995 28.9842 9.39995 27.8062V25.6765H20.047C21.2248 25.6765 22.1764 24.7248 22.1764 23.5468C22.1764 22.3688 21.2248 21.4171 20.047 21.4171H9.39995V19.2874H16.8529C22.1432 19.2874 26.4352 14.9947 26.4352 9.70369C26.4352 4.41264 22.1432 0.119995 16.8529 0.119995H7.27054ZM16.8529 15.028H9.39995V4.37941H16.8529C19.7942 4.37941 22.1764 6.76199 22.1764 9.70369C22.1764 12.6454 19.7942 15.028 16.8529 15.028Z" fill="white"/>
</svg>
