<svg width="35" height="27" viewBox="0 0 35 27" fill="none" xmlns="http://www.w3.org/2000/svg">
<path fill-rule="evenodd" clip-rule="evenodd" d="M6.60414 8.11025C6.26344 8.11025 5.98662 8.37717 5.98662 8.70656V24.2108C5.98662 24.5402 6.26344 24.8072 6.60414 24.8072H27.4667C27.8074 24.8072 28.0842 24.5402 28.0842 24.2108V8.70656C28.0842 8.37717 27.8074 8.11025 27.4667 8.11025H6.60414ZM4.01196 8.70656C4.01196 7.32339 5.17318 6.20203 6.60414 6.20203H27.4667C28.8977 6.20203 30.0589 7.32339 30.0589 8.70656V24.2108C30.0589 25.5942 28.8977 26.7155 27.4667 26.7155H6.60414C5.17318 26.7155 4.01196 25.5942 4.01196 24.2108V8.70656Z" fill="white"/>
<path d="M11.4193 14.9087C12.3052 14.9087 13.0235 14.2145 13.0235 13.3582C13.0235 12.502 12.3052 11.8077 11.4193 11.8077C10.5335 11.8077 9.81519 12.502 9.81519 13.3582C9.81519 14.2145 10.5335 14.9087 11.4193 14.9087Z" fill="white"/>
<path d="M22.6527 14.9087C23.5385 14.9087 24.2568 14.2145 24.2568 13.3582C24.2568 12.502 23.5385 11.8077 22.6527 11.8077C21.7654 11.8077 21.0471 12.502 21.0471 13.3582C21.0471 14.2145 21.7654 14.9087 22.6527 14.9087Z" fill="white"/>
<path fill-rule="evenodd" clip-rule="evenodd" d="M17.0353 0C17.5804 0 18.0233 0.427221 18.0233 0.954111V7.15597C18.0233 7.68286 17.5804 8.11008 17.0353 8.11008C16.4901 8.11008 16.0472 7.68286 16.0472 7.15597V0.954111C16.0472 0.427221 16.4901 0 17.0353 0ZM0.988022 12.4036C1.53315 12.4036 1.97466 12.8306 1.97466 13.3577V19.5594C1.97466 20.0863 1.53315 20.5135 0.988022 20.5135C0.441474 20.5135 0 20.0863 0 19.5594V13.3577C0 12.8306 0.441474 12.4036 0.988022 12.4036ZM33.0825 12.4036C33.629 12.4036 34.0705 12.8306 34.0705 13.3577V19.5594C34.0705 20.0863 33.629 20.5135 33.0825 20.5135C32.5374 20.5135 32.0958 20.0863 32.0958 19.5594V13.3577C32.0958 12.8306 32.5374 12.4036 33.0825 12.4036Z" fill="white"/>
<path d="M13.2251 18.7292C14.6958 20.1492 18.516 22.1369 22.0437 18.7292" stroke="white" stroke-linecap="round"/>
</svg>
