<svg width="29" height="30" viewBox="0 0 29 30" fill="none" xmlns="http://www.w3.org/2000/svg">
<path d="M14.4333 0.824585C6.60565 0.824585 0.237305 7.19384 0.237305 15.0226C0.237305 22.8515 6.60565 29.2207 14.4333 29.2207C22.261 29.2207 28.6294 22.8515 28.6294 15.0226C28.6294 7.19384 22.261 0.824585 14.4333 0.824585ZM14.4333 26.3811C8.17147 26.3811 3.07651 21.2854 3.07651 15.0226C3.07651 13.3643 3.44275 11.7926 4.08299 10.3714C4.30161 10.4991 4.52022 10.6298 4.73032 10.7632C5.29249 11.1182 5.85324 11.4731 6.55595 11.7401C7.25723 12.0056 8.10052 12.183 9.22343 12.183C10.3478 12.183 11.191 12.0056 11.8937 11.7386C12.5964 11.4717 13.1585 11.1182 13.7207 10.7632C14.2829 10.4083 14.845 10.0533 15.5477 9.7864C16.249 9.52089 17.0922 9.34342 18.2166 9.34342C19.3409 9.34342 20.1841 9.5209 20.8854 9.78783C21.5881 10.0533 22.1503 10.4083 22.7124 10.7632C23.2746 11.1182 23.8368 11.4731 24.5395 11.7401C24.7922 11.8352 25.0705 11.9133 25.3643 11.9828C25.6355 12.9511 25.7902 13.9677 25.7902 15.0226C25.7902 21.2854 20.6952 26.3811 14.4333 26.3811Z" fill="white"/>
<path d="M9.46473 17.8622C10.6402 17.8622 11.5941 16.9081 11.5941 15.7325C11.5941 14.5569 10.6402 13.6028 9.46473 13.6028C8.2893 13.6028 7.33533 14.5569 7.33533 15.7325C7.33533 16.9081 8.2893 17.8622 9.46473 17.8622Z" fill="white"/>
<path d="M19.4019 17.8622C20.5773 17.8622 21.5313 16.9081 21.5313 15.7325C21.5313 14.5569 20.5773 13.6028 19.4019 13.6028C18.2264 13.6028 17.2725 14.5569 17.2725 15.7325C17.2725 16.9081 18.2264 17.8622 19.4019 17.8622Z" fill="white"/>
</svg>
