<svg width="32" height="32" viewBox="0 0 32 32" fill="none" xmlns="http://www.w3.org/2000/svg">
<path d="M1.80399 18.4165C1.09135 17.7066 0.735021 16.8533 0.732182 15.858C0.730762 14.8627 1.08431 14.008 1.79411 13.2952C2.34776 12.7401 3.00217 12.4036 3.75456 12.2886C4.50837 12.1736 5.2267 12.273 5.90953 12.5839L13.0218 5.44513C12.7066 4.76362 12.6058 4.0452 12.7194 3.28986C12.8315 2.53736 13.1637 1.88284 13.7174 1.32627C14.4272 0.614949 15.2803 0.257161 16.2755 0.255742C17.2706 0.254322 18.1252 0.607833 18.8365 1.31774C19.393 1.87146 19.7279 2.52459 19.8443 3.27851C19.9593 4.03242 19.8599 4.75085 19.549 5.43378L26.6868 12.5456C27.3541 12.2176 28.0653 12.1097 28.8191 12.2219C29.5729 12.334 30.2345 12.6748 30.8037 13.2427C31.5164 13.9526 31.8741 14.8045 31.8755 15.8012C31.877 16.7965 31.5234 17.6498 30.8136 18.3625C30.2458 18.9333 29.5857 19.2755 28.8333 19.3905C28.0781 19.5055 27.3668 19.4004 26.6982 19.0739L19.5874 26.2127C19.9012 26.8956 20.0019 27.6126 19.8897 28.3665C19.7776 29.1204 19.444 29.7763 18.8904 30.3315C18.1806 31.0442 17.3288 31.4006 16.3322 31.4034C15.3371 31.4049 14.4839 31.0513 13.7712 30.3414C13.2162 29.7877 12.8798 29.1332 12.7648 28.3807C12.6498 27.6268 12.7477 26.9083 13.0601 26.2254L5.92226 19.1122C5.23943 19.426 4.52258 19.5282 3.76877 19.416C3.01496 19.3024 2.35906 18.9688 1.80399 18.4165ZM15.4308 4.73666C15.6721 4.97803 15.9575 5.09872 16.284 5.09872C16.6119 5.0973 16.8958 4.97659 17.1372 4.7338C17.3785 4.49243 17.4992 4.20708 17.4992 3.88052C17.4978 3.55254 17.3756 3.26856 17.1343 3.0272C16.8916 2.78583 16.6062 2.66514 16.2797 2.66514C15.9532 2.66656 15.6679 2.78869 15.428 3.03006C15.1867 3.27284 15.066 3.55679 15.066 3.88477C15.066 4.21132 15.188 4.49529 15.4308 4.73666ZM27.398 16.6616C27.6394 16.903 27.9247 17.0236 28.2512 17.0236C28.5777 17.0222 28.8631 16.9016 29.1044 16.6588C29.3458 16.4174 29.4665 16.132 29.465 15.804C29.465 15.4775 29.3429 15.1935 29.1016 14.9522C28.8588 14.7108 28.5749 14.5901 28.2484 14.5915C27.9204 14.5915 27.6352 14.7136 27.3953 14.955C27.1539 15.1978 27.0332 15.4831 27.0332 15.8097C27.0347 16.1363 27.1553 16.4202 27.398 16.6616ZM7.62581 17.4027L14.7636 24.5145C15.2605 24.2718 15.7786 24.1511 16.3195 24.1497C16.8604 24.1483 17.3785 24.2689 17.8768 24.5089L24.989 17.3701C24.7463 16.8731 24.6242 16.3549 24.6228 15.814C24.6228 15.273 24.742 14.7548 24.9833 14.2564L17.8455 7.14324C17.3472 7.38603 16.8291 7.50812 16.2882 7.50954C15.7488 7.50954 15.2292 7.39028 14.7309 7.14892L7.62017 14.2877C7.86293 14.7846 7.98353 15.3043 7.98495 15.8438C7.98637 16.3847 7.86572 16.9044 7.62581 17.4027ZM15.4748 28.6306C15.7161 28.8719 16.0015 28.9926 16.328 28.9912C16.6559 28.9912 16.9399 28.8705 17.1812 28.6277C17.4225 28.3864 17.5417 28.101 17.5417 27.7744C17.5417 27.4464 17.4197 27.1625 17.1783 26.9211C16.9356 26.6798 16.6503 26.5605 16.3237 26.5605C15.9972 26.5605 15.7133 26.6826 15.4719 26.9239C15.2306 27.1667 15.11 27.4507 15.1114 27.7787C15.1114 28.1053 15.232 28.3892 15.4748 28.6306ZM3.50753 16.7056C3.74887 16.947 4.03419 17.0677 4.36212 17.0677C4.68863 17.0663 4.9726 16.9455 5.21393 16.7028C5.45527 16.46 5.57589 16.176 5.57447 15.8495C5.57447 15.5215 5.45241 15.2375 5.21108 14.9962C4.96832 14.7548 4.68294 14.6341 4.35502 14.6355C4.02851 14.6355 3.74459 14.7576 3.50467 14.999C3.26334 15.2418 3.14267 15.5257 3.14267 15.8523C3.14409 16.1803 3.26478 16.4642 3.50753 16.7056Z" fill="white"/>
</svg>
