<svg width="32" height="32" viewBox="0 0 32 32" fill="none" xmlns="http://www.w3.org/2000/svg">
<path d="M16.2726 25.9398C17.8342 25.9398 19.1118 27.2176 19.1118 28.7794C19.1118 30.3412 17.8342 31.619 16.2726 31.619C14.7111 31.619 13.4334 30.3412 13.4334 28.7794C13.4334 27.2176 14.7111 25.9398 16.2726 25.9398ZM16.2726 0.383301C17.8342 0.383301 19.1118 1.66113 19.1118 3.22291C19.1118 4.7847 17.8342 6.06253 16.2726 6.06253C14.7111 6.06253 13.4334 4.7847 13.4334 3.22291C13.4334 1.66113 14.7111 0.383301 16.2726 0.383301ZM7.755 21.6804C9.31657 21.6804 10.5942 22.9582 10.5942 24.52C10.5942 26.0818 9.31657 27.3596 7.755 27.3596C6.19344 27.3596 4.9158 26.0818 4.9158 24.52C4.9158 22.9582 6.19344 21.6804 7.755 21.6804ZM3.49619 13.1616C5.05776 13.1616 6.3354 14.4394 6.3354 16.0012C6.3354 17.563 5.05776 18.8408 3.49619 18.8408C1.93463 18.8408 0.656982 17.563 0.656982 16.0012C0.656982 14.4394 1.93463 13.1616 3.49619 13.1616ZM7.755 4.64272C9.31657 4.64272 10.5942 5.92055 10.5942 7.48233C10.5942 9.04412 9.31657 10.3219 7.755 10.3219C6.19344 10.3219 4.9158 9.04412 4.9158 7.48233C4.9158 5.92055 6.19344 4.64272 7.755 4.64272ZM24.7903 21.6804C26.3518 21.6804 27.6295 22.9582 27.6295 24.52C27.6295 26.0818 26.3518 27.3596 24.7903 27.3596C23.2287 27.3596 21.951 26.0818 21.951 24.52C21.951 22.9582 23.2287 21.6804 24.7903 21.6804ZM29.0491 13.1616C30.6106 13.1616 31.8883 14.4394 31.8883 16.0012C31.8883 17.563 30.6106 18.8408 29.0491 18.8408C27.4875 18.8408 26.2099 17.563 26.2099 16.0012C26.2099 14.4394 27.4875 13.1616 29.0491 13.1616ZM24.7903 4.64272C26.3518 4.64272 27.6295 5.92055 27.6295 7.48233C27.6295 9.04412 26.3518 10.3219 24.7903 10.3219C23.2287 10.3219 21.951 9.04412 21.951 7.48233C21.951 5.92055 23.2287 4.64272 24.7903 4.64272Z" fill="white"/>
</svg>
