<svg width="29" height="29" viewBox="0 0 29 29" fill="none" xmlns="http://www.w3.org/2000/svg">
<path fill-rule="evenodd" clip-rule="evenodd" d="M4.60263 19.3627V28.8214H18.0975V23.6846H21.4831C21.6947 23.6846 21.8963 23.6434 22.0808 23.5681L20.2041 22.1071H16.5202V27.244H6.17846V18.7266L5.73691 18.268C4.44365 16.9235 1.91254 13.78 1.91254 9.87129C1.91254 8.58494 2.39804 6.61563 3.85739 4.98853C5.14497 3.55169 7.30698 2.25538 10.9057 2.03531V7.59677C10.2839 7.71461 9.69474 7.97015 9.18368 8.34498C8.67262 8.71839 8.25106 9.2025 7.9501 9.75906C7.65057 10.317 7.47735 10.9347 7.4447 11.568C7.41347 12.1998 7.52276 12.8316 7.76694 13.4166C8.00969 14.0015 8.38026 14.5254 8.85157 14.9485C9.32288 15.373 9.88219 15.6854 10.4898 15.8657C11.096 16.046 11.7361 16.0886 12.3622 15.9892C12.9882 15.8912 13.5831 15.6542 14.1069 15.295L25.2026 23.9117C25.1344 24.305 25.2011 24.7111 25.3928 25.0632C25.5844 25.4139 25.8882 25.6908 26.2573 25.8484C26.625 26.0045 27.0353 26.0315 27.4214 25.9264C27.8075 25.8199 28.1454 25.5871 28.3825 25.2634C28.6196 24.9411 28.7402 24.5478 28.7246 24.1474C28.7089 23.747 28.5599 23.3651 28.3001 23.0599C28.0389 22.756 27.684 22.5487 27.2907 22.4721C26.8989 22.3954 26.4916 22.4536 26.1352 22.6382L15.2256 14.1661C15.6202 13.5812 15.8629 12.9068 15.9339 12.204C16.0035 11.5012 15.897 10.7927 15.6259 10.1411C15.3533 9.48936 14.9246 8.91572 14.3752 8.47132C13.8273 8.02692 13.1771 7.72592 12.4829 7.5953V2.00836C14.4888 2.04528 15.8786 2.31501 16.9291 2.7083C18.0435 3.12714 18.8697 3.71782 19.7016 4.48878L19.8137 4.59381C20.6286 5.34914 20.8713 5.57491 21.009 5.94264L24.3479 14.832H21.4831V17.1094L23.0603 18.3361V16.4095H24.3479C24.6034 16.4095 24.8534 16.3484 25.0805 16.2306C25.3062 16.1113 25.4992 15.941 25.6454 15.7308C25.7902 15.5221 25.8825 15.2807 25.9138 15.0266C25.945 14.7739 25.9152 14.5169 25.8257 14.2784L22.4855 5.38612C22.2101 4.6535 21.6777 4.16366 21.0076 3.54888C20.9295 3.47647 20.8514 3.40543 20.7733 3.33302C18.908 1.60227 16.7857 0.425293 12.0059 0.425293C2.70608 0.425293 0.335327 6.63697 0.335327 9.87129C0.335327 14.4203 3.23981 17.9486 4.60263 19.3627ZM11.695 14.4657C12.0471 14.4657 12.3948 14.3962 12.7213 14.2613C13.0464 14.1264 13.3417 13.9291 13.5901 13.6806C13.84 13.4307 14.0374 13.1354 14.1722 12.8103C14.3071 12.4852 14.3766 12.1359 14.3766 11.7837C14.3766 11.4316 14.3071 11.0837 14.1722 10.7572C14.0374 10.4321 13.84 10.1367 13.5916 9.88827C13.3418 9.63838 13.0464 9.44107 12.7213 9.30619C12.3963 9.17131 12.0471 9.10176 11.695 9.10176C10.9838 9.10176 10.3024 9.38427 9.79982 9.88688C9.29586 10.3909 9.01334 11.0724 9.01334 11.7837C9.01334 12.4951 9.29586 13.1766 9.79982 13.6806C10.3024 14.1832 10.9838 14.4657 11.695 14.4657Z" fill="white"/>
</svg>
