<svg width="17" height="17" viewBox="0 0 17 17" fill="none" xmlns="http://www.w3.org/2000/svg">
<path d="M2.84324 1.29178L8.32289 6.77225L13.7742 1.3202C13.8949 1.19242 14.0396 1.08877 14.2015 1.0192C14.3619 0.948206 14.5351 0.909867 14.7111 0.908447C15.0873 0.908447 15.4493 1.05753 15.7147 1.32445C15.9816 1.58995 16.1307 1.952 16.1307 2.32825C16.1336 2.50289 16.1023 2.67469 16.0356 2.83655C15.9703 2.99698 15.8723 3.14323 15.7474 3.26533L10.2252 8.71738L15.7474 14.2404C15.9816 14.469 16.1194 14.78 16.1307 15.1065C16.1307 15.4828 15.9816 15.8448 15.7147 16.1103C15.4493 16.3772 15.0873 16.5263 14.7111 16.5263C14.5308 16.5334 14.3505 16.5036 14.1816 16.4383C14.0127 16.3715 13.8593 16.2708 13.7316 16.143L8.32289 10.6625L2.85745 16.1288C2.7382 16.2523 2.59482 16.3517 2.43583 16.4198C2.27825 16.488 2.10786 16.5249 1.93467 16.5263C1.55847 16.5263 1.19794 16.3772 0.931049 16.1103C0.665583 15.8448 0.515063 15.4828 0.515063 15.1065C0.512224 14.9319 0.544898 14.7601 0.6102 14.5982C0.675502 14.4378 0.774878 14.2915 0.898384 14.1694L6.42058 8.71738L0.898384 3.19431C0.664149 2.96573 0.527839 2.65481 0.515063 2.32825C0.515063 1.952 0.665583 1.58995 0.931049 1.32445C1.19794 1.05753 1.55847 0.908447 1.93467 0.908447C2.27537 0.912707 2.6019 1.05041 2.84324 1.29178Z" fill="#FF5757"/>
</svg>
