<svg width="420" height="480" viewBox="0 0 420 480" fill="none" xmlns="http://www.w3.org/2000/svg">
<path d="M240 323.364C253.1 323.364 263.818 334.082 263.818 347.182C263.818 360.282 253.1 371 240 371C226.9 371 216.182 360.282 216.182 347.182C216.182 334.082 226.9 323.364 240 323.364ZM240 109C253.1 109 263.818 119.718 263.818 132.818C263.818 145.918 253.1 156.636 240 156.636C226.9 156.636 216.182 145.918 216.182 132.818C216.182 119.718 226.9 109 240 109ZM168.545 287.636C181.645 287.636 192.364 298.355 192.364 311.455C192.364 324.555 181.645 335.273 168.545 335.273C155.445 335.273 144.727 324.555 144.727 311.455C144.727 298.355 155.445 287.636 168.545 287.636ZM132.818 216.182C145.918 216.182 156.636 226.9 156.636 240C156.636 253.1 145.918 263.818 132.818 263.818C119.718 263.818 109 253.1 109 240C109 226.9 119.718 216.182 132.818 216.182ZM168.545 144.727C181.645 144.727 192.364 155.445 192.364 168.545C192.364 181.645 181.645 192.364 168.545 192.364C155.445 192.364 144.727 181.645 144.727 168.545C144.727 155.445 155.445 144.727 168.545 144.727ZM311.455 287.636C324.555 287.636 335.273 298.355 335.273 311.455C335.273 324.555 324.555 335.273 311.455 335.273C298.355 335.273 287.636 324.555 287.636 311.455C287.636 298.355 298.355 287.636 311.455 287.636ZM347.182 216.182C360.282 216.182 371 226.9 371 240C371 253.1 360.282 263.818 347.182 263.818C334.082 263.818 323.364 253.1 323.364 240C323.364 226.9 334.082 216.182 347.182 216.182ZM311.455 144.727C324.555 144.727 335.273 155.445 335.273 168.545C335.273 181.645 324.555 192.364 311.455 192.364C298.355 192.364 287.636 181.645 287.636 168.545C287.636 155.445 298.355 144.727 311.455 144.727Z" fill="white" fill-opacity="0.8"/>
<path d="M240 392.727C264 392.727 283.636 412.364 283.636 436.364C283.636 460.364 264 480 240 480C216 480 196.364 460.364 196.364 436.364C196.364 412.364 216 392.727 240 392.727ZM240 0C264 0 283.636 19.6364 283.636 43.6364C283.636 67.6364 264 87.2727 240 87.2727C216 87.2727 196.364 67.6364 196.364 43.6364C196.364 19.6364 216 0 240 0ZM109.091 327.273C133.091 327.273 152.727 346.909 152.727 370.909C152.727 394.909 133.091 414.545 109.091 414.545C85.0909 414.545 65.4545 394.909 65.4545 370.909C65.4545 346.909 85.0909 327.273 109.091 327.273ZM43.6364 196.364C67.6364 196.364 87.2727 216 87.2727 240C87.2727 264 67.6364 283.636 43.6364 283.636C19.6364 283.636 0 264 0 240C0 216 19.6364 196.364 43.6364 196.364ZM109.091 65.4545C133.091 65.4545 152.727 85.0909 152.727 109.091C152.727 133.091 133.091 152.727 109.091 152.727C85.0909 152.727 65.4545 133.091 65.4545 109.091C65.4545 85.0909 85.0909 65.4545 109.091 65.4545ZM370.909 327.273C394.909 327.273 414.545 346.909 414.545 370.909C414.545 394.909 394.909 414.545 370.909 414.545C346.909 414.545 327.273 394.909 327.273 370.909C327.273 346.909 346.909 327.273 370.909 327.273ZM436.364 196.364C460.364 196.364 480 216 480 240C480 264 460.364 283.636 436.364 283.636C412.364 283.636 392.727 264 392.727 240C392.727 216 412.364 196.364 436.364 196.364ZM370.909 65.4545C394.909 65.4545 414.545 85.0909 414.545 109.091C414.545 133.091 394.909 152.727 370.909 152.727C346.909 152.727 327.273 133.091 327.273 109.091C327.273 85.0909 346.909 65.4545 370.909 65.4545Z" fill="white" fill-opacity="0.8"/>
</svg>
