<svg width="60" height="60" viewBox="0 0 60 60" fill="none" xmlns="http://www.w3.org/2000/svg">
<path fill-rule="evenodd" clip-rule="evenodd" d="M15.1641 15.4546C15.6871 15.4546 16.1111 15.8703 16.1111 16.383V43.6171C16.1111 44.1298 15.6871 44.5455 15.1641 44.5455C14.6411 44.5455 14.2171 44.1298 14.2171 43.6171V16.383C14.2171 15.8703 14.6411 15.4546 15.1641 15.4546ZM22.1086 20.4062C22.6316 20.4062 23.0555 20.8219 23.0555 21.3347V39.1296C23.0555 39.6424 22.6316 40.0581 22.1086 40.0581C21.5856 40.0581 21.1616 39.6424 21.1616 39.1296V21.3347C21.1616 20.8219 21.5856 20.4062 22.1086 20.4062ZM8.21967 23.9652C8.74267 23.9652 9.16664 24.3809 9.16664 24.8937V35.1064C9.16664 35.6192 8.74267 36.0349 8.21967 36.0349C7.69668 36.0349 7.27271 35.6192 7.27271 35.1064V24.8937C7.27271 24.3809 7.69668 23.9652 8.21967 23.9652ZM29.053 25.6674C29.576 25.6674 30 26.083 30 26.5958V33.4043C30 33.9171 29.576 34.3327 29.053 34.3327C28.53 34.3327 28.106 33.9171 28.106 33.4043V26.5958C28.106 26.083 28.53 25.6674 29.053 25.6674Z" fill="white"/>
<path d="M28.1819 39.9996V20.9087H36.1601C38.2207 20.9087 39.8146 21.336 40.9418 22.1905C42.0866 23.0451 42.659 24.2541 42.659 25.8178C42.659 26.8541 42.4212 27.7269 41.9457 28.436C41.4878 29.1451 40.8537 29.6814 40.0436 30.0451C39.251 30.4087 38.3792 30.5905 37.4282 30.5905L37.8773 29.936C39.0573 29.936 40.07 30.1269 40.9154 30.5087C41.7784 30.8723 42.4476 31.4269 42.9231 32.1723C43.3987 32.8996 43.6364 33.8087 43.6364 34.8996C43.6364 36.5178 43.0552 37.7723 41.8928 38.6632C40.7481 39.5541 39.0133 39.9996 36.6885 39.9996H28.1819ZM30.1368 38.336H36.6621C38.2824 38.336 39.524 38.0541 40.387 37.4905C41.25 36.9087 41.6815 35.9905 41.6815 34.736C41.6815 33.4996 41.25 32.5996 40.387 32.036C39.524 31.4541 38.2824 31.1632 36.6621 31.1632H29.9255V29.4996H36.028C37.5074 29.4996 38.6522 29.2087 39.4624 28.6269C40.2901 28.0451 40.704 27.1814 40.704 26.036C40.704 24.8723 40.2901 24.0087 39.4624 23.4451C38.6522 22.8632 37.5074 22.5723 36.028 22.5723H30.1368V38.336Z" fill="white"/>
<path fill-rule="evenodd" clip-rule="evenodd" d="M30 58.75C45.8782 58.75 58.75 45.8782 58.75 30C58.75 14.1218 45.8782 1.25 30 1.25C14.1218 1.25 1.25 14.1218 1.25 30C1.25 45.8782 14.1218 58.75 30 58.75ZM30 60C46.5685 60 60 46.5685 60 30C60 13.4315 46.5685 0 30 0C13.4315 0 0 13.4315 0 30C0 46.5685 13.4315 60 30 60Z" fill="white"/>
</svg>
