<svg width="25" height="24" viewBox="0 0 25 24" fill="none" xmlns="http://www.w3.org/2000/svg">
<path d="M6.94701 2.445C8.09001 3.278 8.98001 4.415 9.74001 5.503L10.182 6.147L10.599 6.762C10.8076 7.06673 10.8968 7.43755 10.8496 7.8038C10.8024 8.17005 10.6221 8.50613 10.343 8.748L8.39201 10.197C8.29775 10.2651 8.2314 10.365 8.20529 10.4783C8.17917 10.5916 8.19506 10.7105 8.25001 10.813C8.69201 11.616 9.47801 12.812 10.378 13.712C11.279 14.612 12.531 15.45 13.39 15.942C13.4977 16.0025 13.6245 16.0194 13.7443 15.9892C13.864 15.9591 13.9677 15.8842 14.034 15.78L15.304 13.847C15.5375 13.5368 15.8819 13.3291 16.2652 13.2672C16.6484 13.2053 17.0408 13.2941 17.36 13.515L18.023 13.974C19.262 14.834 20.593 15.811 21.611 17.114C21.7725 17.3218 21.8752 17.5691 21.9084 17.8302C21.9417 18.0912 21.9042 18.3564 21.8 18.598C20.963 20.551 18.845 22.214 16.642 22.133L16.342 22.116L16.109 22.096L15.851 22.066L15.57 22.028L15.265 21.978C15.2116 21.9684 15.1583 21.9584 15.105 21.948L14.769 21.876C14.7102 21.8631 14.6516 21.8498 14.593 21.836L14.227 21.742L13.842 21.632L13.44 21.502C11.594 20.876 9.25101 19.646 6.84701 17.242C4.44401 14.839 3.21401 12.496 2.58801 10.65L2.45801 10.248L2.34801 9.863L2.25401 9.497L2.17601 9.151C2.15348 9.04264 2.13248 8.93396 2.11301 8.825L2.06301 8.52L2.02301 8.239L1.99401 7.981L1.97401 7.748L1.95801 7.448C1.87701 5.252 3.55801 3.119 5.50201 2.286C5.73599 2.18497 5.99221 2.1465 6.24554 2.17438C6.49887 2.20225 6.7406 2.29551 6.94701 2.445ZM15.082 6.04L15.198 6.053C15.9259 6.1814 16.5945 6.53694 17.1079 7.06868C17.6213 7.60042 17.9532 8.28104 18.056 9.013C18.0927 9.26618 18.0309 9.52378 17.8834 9.73281C17.7359 9.94183 17.5139 10.0864 17.2631 10.1367C17.0123 10.1871 16.7517 10.1394 16.535 10.0034C16.3183 9.86753 16.1619 9.65372 16.098 9.406L16.075 9.291C16.0348 9.0041 15.9123 8.73499 15.7224 8.51619C15.5326 8.29738 15.2834 8.13824 15.005 8.058L14.85 8.023C14.5989 7.9785 14.3743 7.83974 14.2221 7.63511C14.0699 7.43048 14.0017 7.17544 14.0313 6.92215C14.0609 6.66886 14.1862 6.43646 14.3815 6.27248C14.5768 6.10851 14.8274 6.02534 15.082 6.04ZM15.09 3C16.6813 3 18.2074 3.63214 19.3327 4.75736C20.4579 5.88258 21.09 7.4087 21.09 9C21.0897 9.25488 20.9921 9.50003 20.8172 9.68537C20.6422 9.87071 20.4031 9.98224 20.1486 9.99717C19.8942 10.0121 19.6436 9.92933 19.4482 9.76574C19.2527 9.60215 19.1271 9.3701 19.097 9.117L19.09 9C19.0904 7.98442 18.7042 7.00676 18.01 6.26553C17.3158 5.52429 16.3654 5.07505 15.352 5.009L15.09 5C14.8248 5 14.5704 4.89464 14.3829 4.70711C14.1954 4.51957 14.09 4.26522 14.09 4C14.09 3.73479 14.1954 3.48043 14.3829 3.2929C14.5704 3.10536 14.8248 3 15.09 3Z" fill="#2213B9"/>
</svg>
