<svg width="15" height="15" viewBox="0 0 15 15" fill="none" xmlns="http://www.w3.org/2000/svg">
<path d="M6.73605 1.04169C6.97651 0.319439 8.02349 0.319438 8.26395 1.04168L9.48378 4.70561C9.59132 5.02861 9.89974 5.24729 10.2477 5.24729H14.1952C14.9733 5.24729 15.2969 6.21907 14.6673 6.66544L11.4738 8.92987C11.1922 9.1295 11.0744 9.48334 11.182 9.80634L12.4018 13.4703C12.6423 14.1925 11.7952 14.7931 11.1657 14.3467L7.97215 12.0823C7.69061 11.8827 7.30939 11.8827 7.02785 12.0823L3.83429 14.3467C3.20476 14.7931 2.35773 14.1925 2.59819 13.4703L3.81803 9.80634C3.92556 9.48334 3.80776 9.1295 3.52622 8.92987L0.332657 6.66544C-0.296872 6.21907 0.0266629 5.24729 0.804803 5.24729H4.75227C5.10026 5.24729 5.40868 5.02861 5.51622 4.70561L6.73605 1.04169Z" fill="white"/>
</svg>
