<svg width="17" height="17" viewBox="0 0 17 17" fill="none" xmlns="http://www.w3.org/2000/svg">
<path d="M14.1667 2.59168C13.4027 1.81995 12.4927 1.20807 11.4897 0.791718C10.4867 0.375371 9.41093 0.162893 8.325 0.166676C3.775 0.166676 0.0666668 3.87501 0.0666668 8.42501C0.0666668 9.88334 0.45 11.3 1.16667 12.55L0 16.8333L4.375 15.6833C5.58333 16.3417 6.94167 16.6917 8.325 16.6917C12.875 16.6917 16.5833 12.9833 16.5833 8.43334C16.5833 6.22501 15.725 4.15001 14.1667 2.59168ZM8.325 15.2917C7.09167 15.2917 5.88333 14.9583 4.825 14.3333L4.575 14.1833L1.975 14.8667L2.66667 12.3333L2.5 12.075C1.81479 10.9808 1.45095 9.71604 1.45 8.42501C1.45 4.64167 4.53333 1.55834 8.31667 1.55834C10.15 1.55834 11.875 2.27501 13.1667 3.57501C13.8062 4.21165 14.3131 4.96889 14.6578 5.80286C15.0026 6.63683 15.1784 7.53093 15.175 8.43334C15.1917 12.2167 12.1083 15.2917 8.325 15.2917ZM12.0917 10.1583C11.8833 10.0583 10.8667 9.55834 10.6833 9.48334C10.4917 9.41668 10.3583 9.38334 10.2167 9.58334C10.075 9.79168 9.68333 10.2583 9.56667 10.3917C9.45 10.5333 9.325 10.55 9.11667 10.4417C8.90833 10.3417 8.24167 10.1167 7.45833 9.41668C6.84167 8.86668 6.43333 8.19168 6.30833 7.98334C6.19167 7.77501 6.29167 7.66668 6.4 7.55834C6.49167 7.46667 6.60833 7.31667 6.70833 7.20001C6.80833 7.08334 6.85 6.99167 6.91667 6.85834C6.98333 6.71667 6.95 6.60001 6.9 6.50001C6.85 6.40001 6.43333 5.38334 6.26667 4.96668C6.1 4.56668 5.925 4.61668 5.8 4.60834H5.4C5.25833 4.60834 5.04167 4.65834 4.85 4.86668C4.66667 5.07501 4.13333 5.57501 4.13333 6.59168C4.13333 7.60834 4.875 8.59168 4.975 8.72501C5.075 8.86668 6.43333 10.95 8.5 11.8417C8.99167 12.0583 9.375 12.1833 9.675 12.275C10.1667 12.4333 10.6167 12.4083 10.975 12.3583C11.375 12.3 12.2 11.8583 12.3667 11.375C12.5417 10.8917 12.5417 10.4833 12.4833 10.3917C12.425 10.3 12.3 10.2583 12.0917 10.1583Z" fill="white"/>
</svg>
