<svg width="342" height="365" viewBox="0 0 342 365" fill="none" xmlns="http://www.w3.org/2000/svg">
<path d="M182.5 298.636C200.75 298.636 215.682 313.568 215.682 331.818C215.682 350.068 200.75 365 182.5 365C164.25 365 149.318 350.068 149.318 331.818C149.318 313.568 164.25 298.636 182.5 298.636ZM182.5 0C200.75 0 215.682 14.9318 215.682 33.1818C215.682 51.4318 200.75 66.3636 182.5 66.3636C164.25 66.3636 149.318 51.4318 149.318 33.1818C149.318 14.9318 164.25 0 182.5 0ZM82.9546 248.864C101.205 248.864 116.136 263.795 116.136 282.045C116.136 300.295 101.205 315.227 82.9546 315.227C64.7046 315.227 49.7727 300.295 49.7727 282.045C49.7727 263.795 64.7046 248.864 82.9546 248.864ZM33.1818 149.318C51.4318 149.318 66.3636 164.25 66.3636 182.5C66.3636 200.75 51.4318 215.682 33.1818 215.682C14.9318 215.682 0 200.75 0 182.5C0 164.25 14.9318 149.318 33.1818 149.318ZM82.9546 49.7727C101.205 49.7727 116.136 64.7046 116.136 82.9546C116.136 101.205 101.205 116.136 82.9546 116.136C64.7046 116.136 49.7727 101.205 49.7727 82.9546C49.7727 64.7046 64.7046 49.7727 82.9546 49.7727ZM282.045 248.864C300.295 248.864 315.227 263.795 315.227 282.045C315.227 300.295 300.295 315.227 282.045 315.227C263.795 315.227 248.864 300.295 248.864 282.045C248.864 263.795 263.795 248.864 282.045 248.864ZM331.818 149.318C350.068 149.318 365 164.25 365 182.5C365 200.75 350.068 215.682 331.818 215.682C313.568 215.682 298.636 200.75 298.636 182.5C298.636 164.25 313.568 149.318 331.818 149.318ZM282.045 49.7727C300.295 49.7727 315.227 64.7046 315.227 82.9546C315.227 101.205 300.295 116.136 282.045 116.136C263.795 116.136 248.864 101.205 248.864 82.9546C248.864 64.7046 263.795 49.7727 282.045 49.7727Z" fill="white" fill-opacity="0.8"/>
<path d="M182 235.455C190.4 235.455 197.273 242.327 197.273 250.727C197.273 259.127 190.4 266 182 266C173.6 266 166.727 259.127 166.727 250.727C166.727 242.327 173.6 235.455 182 235.455ZM182 98C190.4 98 197.273 104.873 197.273 113.273C197.273 121.673 190.4 128.545 182 128.545C173.6 128.545 166.727 121.673 166.727 113.273C166.727 104.873 173.6 98 182 98ZM136.182 212.545C144.582 212.545 151.455 219.418 151.455 227.818C151.455 236.218 144.582 243.091 136.182 243.091C127.782 243.091 120.909 236.218 120.909 227.818C120.909 219.418 127.782 212.545 136.182 212.545ZM113.273 166.727C121.673 166.727 128.545 173.6 128.545 182C128.545 190.4 121.673 197.273 113.273 197.273C104.873 197.273 98 190.4 98 182C98 173.6 104.873 166.727 113.273 166.727ZM136.182 120.909C144.582 120.909 151.455 127.782 151.455 136.182C151.455 144.582 144.582 151.455 136.182 151.455C127.782 151.455 120.909 144.582 120.909 136.182C120.909 127.782 127.782 120.909 136.182 120.909ZM227.818 212.545C236.218 212.545 243.091 219.418 243.091 227.818C243.091 236.218 236.218 243.091 227.818 243.091C219.418 243.091 212.545 236.218 212.545 227.818C212.545 219.418 219.418 212.545 227.818 212.545ZM250.727 166.727C259.127 166.727 266 173.6 266 182C266 190.4 259.127 197.273 250.727 197.273C242.327 197.273 235.455 190.4 235.455 182C235.455 173.6 242.327 166.727 250.727 166.727ZM227.818 120.909C236.218 120.909 243.091 127.782 243.091 136.182C243.091 144.582 236.218 151.455 227.818 151.455C219.418 151.455 212.545 144.582 212.545 136.182C212.545 127.782 219.418 120.909 227.818 120.909Z" fill="white" fill-opacity="0.8"/>
</svg>
