<svg width="114" height="114" viewBox="0 0 114 114" fill="none" xmlns="http://www.w3.org/2000/svg">
<path d="M57 93.2727C62.7 93.2727 67.3636 97.9364 67.3636 103.636C67.3636 109.336 62.7 114 57 114C51.3 114 46.6364 109.336 46.6364 103.636C46.6364 97.9364 51.3 93.2727 57 93.2727ZM57 0C62.7 0 67.3636 4.66364 67.3636 10.3636C67.3636 16.0636 62.7 20.7273 57 20.7273C51.3 20.7273 46.6364 16.0636 46.6364 10.3636C46.6364 4.66364 51.3 0 57 0ZM25.9091 77.7273C31.6091 77.7273 36.2727 82.3909 36.2727 88.0909C36.2727 93.7909 31.6091 98.4545 25.9091 98.4545C20.2091 98.4545 15.5455 93.7909 15.5455 88.0909C15.5455 82.3909 20.2091 77.7273 25.9091 77.7273ZM10.3636 46.6364C16.0636 46.6364 20.7273 51.3 20.7273 57C20.7273 62.7 16.0636 67.3636 10.3636 67.3636C4.66364 67.3636 0 62.7 0 57C0 51.3 4.66364 46.6364 10.3636 46.6364ZM25.9091 15.5455C31.6091 15.5455 36.2727 20.2091 36.2727 25.9091C36.2727 31.6091 31.6091 36.2727 25.9091 36.2727C20.2091 36.2727 15.5455 31.6091 15.5455 25.9091C15.5455 20.2091 20.2091 15.5455 25.9091 15.5455ZM88.0909 77.7273C93.7909 77.7273 98.4545 82.3909 98.4545 88.0909C98.4545 93.7909 93.7909 98.4545 88.0909 98.4545C82.3909 98.4545 77.7273 93.7909 77.7273 88.0909C77.7273 82.3909 82.3909 77.7273 88.0909 77.7273ZM103.636 46.6364C109.336 46.6364 114 51.3 114 57C114 62.7 109.336 67.3636 103.636 67.3636C97.9364 67.3636 93.2727 62.7 93.2727 57C93.2727 51.3 97.9364 46.6364 103.636 46.6364ZM88.0909 15.5455C93.7909 15.5455 98.4545 20.2091 98.4545 25.9091C98.4545 31.6091 93.7909 36.2727 88.0909 36.2727C82.3909 36.2727 77.7273 31.6091 77.7273 25.9091C77.7273 20.2091 82.3909 15.5455 88.0909 15.5455Z" fill="white"/>
<path d="M57 73.5455C59.6 73.5455 61.7273 75.6727 61.7273 78.2727C61.7273 80.8727 59.6 83 57 83C54.4 83 52.2727 80.8727 52.2727 78.2727C52.2727 75.6727 54.4 73.5455 57 73.5455ZM57 31C59.6 31 61.7273 33.1273 61.7273 35.7273C61.7273 38.3273 59.6 40.4545 57 40.4545C54.4 40.4545 52.2727 38.3273 52.2727 35.7273C52.2727 33.1273 54.4 31 57 31ZM42.8182 66.4545C45.4182 66.4545 47.5455 68.5818 47.5455 71.1818C47.5455 73.7818 45.4182 75.9091 42.8182 75.9091C40.2182 75.9091 38.0909 73.7818 38.0909 71.1818C38.0909 68.5818 40.2182 66.4545 42.8182 66.4545ZM35.7273 52.2727C38.3273 52.2727 40.4545 54.4 40.4545 57C40.4545 59.6 38.3273 61.7273 35.7273 61.7273C33.1273 61.7273 31 59.6 31 57C31 54.4 33.1273 52.2727 35.7273 52.2727ZM42.8182 38.0909C45.4182 38.0909 47.5455 40.2182 47.5455 42.8182C47.5455 45.4182 45.4182 47.5455 42.8182 47.5455C40.2182 47.5455 38.0909 45.4182 38.0909 42.8182C38.0909 40.2182 40.2182 38.0909 42.8182 38.0909ZM71.1818 66.4545C73.7818 66.4545 75.9091 68.5818 75.9091 71.1818C75.9091 73.7818 73.7818 75.9091 71.1818 75.9091C68.5818 75.9091 66.4545 73.7818 66.4545 71.1818C66.4545 68.5818 68.5818 66.4545 71.1818 66.4545ZM78.2727 52.2727C80.8727 52.2727 83 54.4 83 57C83 59.6 80.8727 61.7273 78.2727 61.7273C75.6727 61.7273 73.5455 59.6 73.5455 57C73.5455 54.4 75.6727 52.2727 78.2727 52.2727ZM71.1818 38.0909C73.7818 38.0909 75.9091 40.2182 75.9091 42.8182C75.9091 45.4182 73.7818 47.5455 71.1818 47.5455C68.5818 47.5455 66.4545 45.4182 66.4545 42.8182C66.4545 40.2182 68.5818 38.0909 71.1818 38.0909Z" fill="white"/>
</svg>
