<svg width="106" height="172" viewBox="0 0 106 172" fill="none" xmlns="http://www.w3.org/2000/svg">
<path d="M86 140.727C94.6 140.727 101.636 147.764 101.636 156.364C101.636 164.964 94.6 172 86 172C77.4 172 70.3636 164.964 70.3636 156.364C70.3636 147.764 77.4 140.727 86 140.727ZM86 0C94.6 0 101.636 7.03636 101.636 15.6364C101.636 24.2364 94.6 31.2727 86 31.2727C77.4 31.2727 70.3636 24.2364 70.3636 15.6364C70.3636 7.03636 77.4 0 86 0ZM39.0909 117.273C47.6909 117.273 54.7273 124.309 54.7273 132.909C54.7273 141.509 47.6909 148.545 39.0909 148.545C30.4909 148.545 23.4545 141.509 23.4545 132.909C23.4545 124.309 30.4909 117.273 39.0909 117.273ZM15.6364 70.3636C24.2364 70.3636 31.2727 77.4 31.2727 86C31.2727 94.6 24.2364 101.636 15.6364 101.636C7.03636 101.636 0 94.6 0 86C0 77.4 7.03636 70.3636 15.6364 70.3636ZM39.0909 23.4545C47.6909 23.4545 54.7273 30.4909 54.7273 39.0909C54.7273 47.6909 47.6909 54.7273 39.0909 54.7273C30.4909 54.7273 23.4545 47.6909 23.4545 39.0909C23.4545 30.4909 30.4909 23.4545 39.0909 23.4545ZM132.909 117.273C141.509 117.273 148.545 124.309 148.545 132.909C148.545 141.509 141.509 148.545 132.909 148.545C124.309 148.545 117.273 141.509 117.273 132.909C117.273 124.309 124.309 117.273 132.909 117.273ZM156.364 70.3636C164.964 70.3636 172 77.4 172 86C172 94.6 164.964 101.636 156.364 101.636C147.764 101.636 140.727 94.6 140.727 86C140.727 77.4 147.764 70.3636 156.364 70.3636ZM132.909 23.4545C141.509 23.4545 148.545 30.4909 148.545 39.0909C148.545 47.6909 141.509 54.7273 132.909 54.7273C124.309 54.7273 117.273 47.6909 117.273 39.0909C117.273 30.4909 124.309 23.4545 132.909 23.4545Z" fill="white"/>
<path d="M86 110.818C89.9 110.818 93.0909 114.009 93.0909 117.909C93.0909 121.809 89.9 125 86 125C82.1 125 78.9091 121.809 78.9091 117.909C78.9091 114.009 82.1 110.818 86 110.818ZM86 47C89.9 47 93.0909 50.1909 93.0909 54.0909C93.0909 57.9909 89.9 61.1818 86 61.1818C82.1 61.1818 78.9091 57.9909 78.9091 54.0909C78.9091 50.1909 82.1 47 86 47ZM64.7273 100.182C68.6273 100.182 71.8182 103.373 71.8182 107.273C71.8182 111.173 68.6273 114.364 64.7273 114.364C60.8273 114.364 57.6364 111.173 57.6364 107.273C57.6364 103.373 60.8273 100.182 64.7273 100.182ZM54.0909 78.9091C57.9909 78.9091 61.1818 82.1 61.1818 86C61.1818 89.9 57.9909 93.0909 54.0909 93.0909C50.1909 93.0909 47 89.9 47 86C47 82.1 50.1909 78.9091 54.0909 78.9091ZM64.7273 57.6364C68.6273 57.6364 71.8182 60.8273 71.8182 64.7273C71.8182 68.6273 68.6273 71.8182 64.7273 71.8182C60.8273 71.8182 57.6364 68.6273 57.6364 64.7273C57.6364 60.8273 60.8273 57.6364 64.7273 57.6364ZM107.273 100.182C111.173 100.182 114.364 103.373 114.364 107.273C114.364 111.173 111.173 114.364 107.273 114.364C103.373 114.364 100.182 111.173 100.182 107.273C100.182 103.373 103.373 100.182 107.273 100.182ZM117.909 78.9091C121.809 78.9091 125 82.1 125 86C125 89.9 121.809 93.0909 117.909 93.0909C114.009 93.0909 110.818 89.9 110.818 86C110.818 82.1 114.009 78.9091 117.909 78.9091ZM107.273 57.6364C111.173 57.6364 114.364 60.8273 114.364 64.7273C114.364 68.6273 111.173 71.8182 107.273 71.8182C103.373 71.8182 100.182 68.6273 100.182 64.7273C100.182 60.8273 103.373 57.6364 107.273 57.6364Z" fill="white"/>
</svg>
