<svg width="61" height="59" viewBox="0 0 61 59" fill="none" xmlns="http://www.w3.org/2000/svg">
<path fill-rule="evenodd" clip-rule="evenodd" d="M53.1768 42.1426V16.7955L30.4486 4.12195L7.7204 16.7955V42.1426L30.4486 54.8161L53.1768 42.1426ZM12.7711 19.6118L30.4486 9.75463L48.1261 19.6118V39.3262L30.4486 49.1834L12.7711 39.3262V19.6118ZM30.4486 41.6585C23.475 41.6585 17.8218 36.1986 17.8218 29.4634C17.8218 22.7282 23.475 17.2683 30.4486 17.2683C37.4222 17.2683 43.0754 22.7282 43.0754 29.4634C43.0754 36.1986 37.4222 41.6585 30.4486 41.6585ZM38.0247 29.4634C38.0247 33.5045 34.6328 36.7805 30.4486 36.7805C26.2645 36.7805 22.8725 33.5045 22.8725 29.4634C22.8725 25.4223 26.2645 22.1463 30.4486 22.1463C34.6328 22.1463 38.0247 25.4223 38.0247 29.4634Z" fill="#FF7163"/>
</svg>
