<svg width="56" height="56" viewBox="0 0 56 56" fill="none" xmlns="http://www.w3.org/2000/svg">
<path fill-rule="evenodd" clip-rule="evenodd" d="M30.2702 44.1708V41.6894C34.8686 41.0321 38.8452 38.448 41.355 34.7816C47.6472 33.9151 51.1354 28.4676 51.1354 21V14.0488C51.1354 11.4894 49.0595 9.41467 46.4987 9.41467H43.56C42.7583 8.02952 41.2598 7.0976 39.5436 7.0976H16.36C14.6438 7.0976 13.1453 8.02952 12.3436 9.41467H9.40491C6.84412 9.41467 4.76819 11.4894 4.76819 14.0488V21C4.76819 28.4676 8.25636 33.9151 14.5486 34.7816C17.0584 38.448 21.035 41.0321 25.6334 41.6894V44.1708H23.3151C20.7543 44.1708 18.6784 46.2455 18.6784 48.8049H37.2252C37.2252 46.2455 35.1493 44.1708 32.5885 44.1708H30.2702ZM9.40491 14.0488H11.7233V25.6342C11.7233 26.6948 11.8251 27.7317 12.0196 28.7356C10.3097 27.1974 9.40491 24.5481 9.40491 21V14.0488ZM44.1803 14.0488V25.6342C44.1803 26.6948 44.0785 27.7317 43.884 28.7356C45.5939 27.1974 46.4987 24.5481 46.4987 21V14.0488H44.1803ZM16.36 25.6342V11.7317H39.5436V25.6342C39.5436 32.0326 34.3538 37.2195 27.9518 37.2195C21.5498 37.2195 16.36 32.0326 16.36 25.6342Z" fill="#FE7062"/>
</svg>
