<svg width="56" height="56" viewBox="0 0 56 56" fill="none" xmlns="http://www.w3.org/2000/svg">
<path d="M47.426 22.3903C47.426 26.2273 41.5281 29.3415 37.6889 29.3415C33.8497 29.3415 30.0383 26.2273 30.0383 22.3903H25.8653C25.8653 26.2273 22.0539 29.3415 18.2147 29.3415C14.3755 29.3415 8.47757 26.2273 8.47757 22.3903H6.39104C5.94592 24.1698 5.69554 26.0327 5.69554 27.9512C5.69554 33.8507 8.04039 39.5085 12.2142 43.6801C16.3881 47.8516 22.0491 50.1951 27.9518 50.1951C33.8545 50.1951 39.5155 47.8516 43.6894 43.6801C47.8632 39.5085 50.2081 33.8507 50.2081 27.9512C50.2081 26.0327 49.9577 24.1698 49.5126 22.3903H47.426ZM27.9518 5.70734C19.717 5.70734 12.5115 10.1839 8.67231 16.8293H47.2313C43.3921 10.1839 36.1866 5.70734 27.9518 5.70734ZM55.7721 27.9512C55.7721 35.3256 52.8411 42.3978 47.6237 47.6123C42.4064 52.8267 35.3302 55.7561 27.9518 55.7561C24.2984 55.7561 20.6807 55.0369 17.3054 53.6396C13.9301 52.2423 10.8632 50.1942 8.27986 47.6123C3.06253 42.3978 0.13147 35.3256 0.13147 27.9512C0.13147 20.5769 3.06253 13.5046 8.27986 8.29022C13.4972 3.0758 20.5734 0.146362 27.9518 0.146362C31.6052 0.146362 35.2229 0.865557 38.5982 2.26288C41.9735 3.66021 45.0404 5.7083 47.6237 8.29022C50.2071 10.8721 52.2563 13.9373 53.6544 17.3108C55.0525 20.6842 55.7721 24.2999 55.7721 27.9512ZM27.9518 42.4932C23.0832 42.4932 18.7989 40.4634 16.2951 37.4605L20.2456 33.5122C21.4975 35.5142 24.4743 36.9322 27.9518 36.9322C31.4293 36.9322 34.4061 35.5142 35.658 33.5122L39.6085 37.4605C37.1047 40.4634 32.8204 42.4932 27.9518 42.4932Z" fill="#FF7163"/>
</svg>
