<svg width="172" height="48" viewBox="0 0 172 48" fill="none" xmlns="http://www.w3.org/2000/svg">
<path d="M12 13V35M6.5 19.875V28.125M23 21.25V26.75M17.5 17V31.375" stroke="#2213B9" stroke-width="1.5" stroke-linecap="round" stroke-linejoin="round"/>
<path d="M22.215 32V16.6H28.859C30.575 16.6 31.9024 16.9447 32.841 17.634C33.7944 18.3233 34.271 19.2987 34.271 20.56C34.271 21.396 34.073 22.1 33.677 22.672C33.2957 23.244 32.7677 23.6767 32.093 23.97C31.433 24.2633 30.707 24.41 29.915 24.41L30.289 23.882C31.2717 23.882 32.115 24.036 32.819 24.344C33.5377 24.6373 34.095 25.0847 34.491 25.686C34.887 26.2727 35.085 27.006 35.085 27.886C35.085 29.1913 34.601 30.2033 33.633 30.922C32.6797 31.6407 31.235 32 29.299 32H22.215ZM23.843 30.658H29.277C30.6264 30.658 31.6604 30.4307 32.379 29.976C33.0977 29.5067 33.457 28.766 33.457 27.754C33.457 26.7567 33.0977 26.0307 32.379 25.576C31.6604 25.1067 30.6264 24.872 29.277 24.872H23.667V23.53H28.749C29.981 23.53 30.9344 23.2953 31.609 22.826C32.2984 22.3567 32.643 21.66 32.643 20.736C32.643 19.7973 32.2984 19.1007 31.609 18.646C30.9344 18.1767 29.981 17.942 28.749 17.942H23.843V30.658Z" fill="#2213B9"/>
<circle cx="24" cy="24" r="23.5" stroke="#2213B9"/>
<path d="M64 31.35V16.65H70.594C72.288 16.65 73.59 16.993 74.5 17.679C75.41 18.351 75.865 19.275 75.865 20.451C75.865 21.249 75.683 21.921 75.319 22.467C74.969 23.013 74.493 23.433 73.891 23.727C73.289 24.021 72.638 24.168 71.938 24.168L72.316 23.538C73.156 23.538 73.898 23.685 74.542 23.979C75.186 24.273 75.697 24.707 76.075 25.281C76.453 25.841 76.642 26.541 76.642 27.381C76.642 28.641 76.166 29.621 75.214 30.321C74.276 31.007 72.876 31.35 71.014 31.35H64ZM66.1 29.649H70.93C72.092 29.649 72.981 29.453 73.597 29.061C74.213 28.669 74.521 28.053 74.521 27.213C74.521 26.359 74.213 25.736 73.597 25.344C72.981 24.952 72.092 24.756 70.93 24.756H65.911V23.055H70.405C71.469 23.055 72.295 22.859 72.883 22.467C73.471 22.075 73.765 21.487 73.765 20.703C73.765 19.919 73.471 19.331 72.883 18.939C72.295 18.547 71.469 18.351 70.405 18.351H66.1V29.649Z" fill="#2213B9"/>
<path d="M86.5296 31.518C85.4096 31.518 84.3666 31.329 83.4006 30.951C82.4486 30.573 81.6226 30.048 80.9226 29.376C80.2226 28.69 79.6766 27.892 79.2846 26.982C78.8926 26.072 78.6966 25.078 78.6966 24C78.6966 22.922 78.8926 21.928 79.2846 21.018C79.6766 20.108 80.2226 19.317 80.9226 18.645C81.6226 17.959 82.4486 17.427 83.4006 17.049C84.3526 16.671 85.3956 16.482 86.5296 16.482C87.6496 16.482 88.6786 16.671 89.6166 17.049C90.5686 17.413 91.3946 17.938 92.0946 18.624C92.8086 19.296 93.3546 20.087 93.7326 20.997C94.1246 21.907 94.3206 22.908 94.3206 24C94.3206 25.092 94.1246 26.093 93.7326 27.003C93.3546 27.913 92.8086 28.711 92.0946 29.397C91.3946 30.069 90.5686 30.594 89.6166 30.972C88.6786 31.336 87.6496 31.518 86.5296 31.518ZM86.5296 29.649C87.3416 29.649 88.0906 29.509 88.7766 29.229C89.4766 28.949 90.0786 28.557 90.5826 28.053C91.1006 27.535 91.4996 26.933 91.7796 26.247C92.0736 25.561 92.2206 24.812 92.2206 24C92.2206 23.188 92.0736 22.439 91.7796 21.753C91.4996 21.067 91.1006 20.472 90.5826 19.968C90.0786 19.45 89.4766 19.051 88.7766 18.771C88.0906 18.491 87.3416 18.351 86.5296 18.351C85.7036 18.351 84.9406 18.491 84.2406 18.771C83.5546 19.051 82.9526 19.45 82.4346 19.968C81.9166 20.472 81.5106 21.067 81.2166 21.753C80.9366 22.439 80.7966 23.188 80.7966 24C80.7966 24.812 80.9366 25.561 81.2166 26.247C81.5106 26.933 81.9166 27.535 82.4346 28.053C82.9526 28.557 83.5546 28.949 84.2406 29.229C84.9406 29.509 85.7036 29.649 86.5296 29.649Z" fill="#2213B9"/>
<path d="M100.244 31.35V18.351H96.295V16.65H105.795V18.351H102.323V31.35H100.244Z" fill="#2213B9"/>
<path d="M106.686 31.35L113.343 16.65H115.422L122.1 31.35H119.895L113.952 17.826H114.792L108.849 31.35H106.686ZM109.521 27.675L110.088 25.995H118.362L118.971 27.675H109.521Z" fill="#2213B9"/>
<path d="M130.661 31.518C129.541 31.518 128.505 31.336 127.553 30.972C126.615 30.594 125.796 30.069 125.096 29.397C124.41 28.711 123.871 27.913 123.479 27.003C123.087 26.093 122.891 25.092 122.891 24C122.891 22.908 123.087 21.907 123.479 20.997C123.871 20.087 124.417 19.296 125.117 18.624C125.817 17.938 126.636 17.413 127.574 17.049C128.526 16.671 129.562 16.482 130.682 16.482C131.816 16.482 132.859 16.678 133.811 17.07C134.777 17.448 135.596 18.015 136.268 18.771L134.903 20.094C134.343 19.506 133.713 19.072 133.013 18.792C132.313 18.498 131.564 18.351 130.766 18.351C129.94 18.351 129.17 18.491 128.456 18.771C127.756 19.051 127.147 19.443 126.629 19.947C126.111 20.451 125.705 21.053 125.411 21.753C125.131 22.439 124.991 23.188 124.991 24C124.991 24.812 125.131 25.568 125.411 26.268C125.705 26.954 126.111 27.549 126.629 28.053C127.147 28.557 127.756 28.949 128.456 29.229C129.17 29.509 129.94 29.649 130.766 29.649C131.564 29.649 132.313 29.509 133.013 29.229C133.713 28.935 134.343 28.487 134.903 27.885L136.268 29.208C135.596 29.964 134.777 30.538 133.811 30.93C132.859 31.322 131.809 31.518 130.661 31.518Z" fill="#2213B9"/>
<path d="M136.689 31.35L143.346 16.65H145.425L152.103 31.35H149.898L143.955 17.826H144.795L138.852 31.35H136.689ZM139.524 27.675L140.091 25.995H148.365L148.974 27.675H139.524Z" fill="#2213B9"/>
<path d="M154.296 31.35V16.65H156.396V29.649H161.295V31.35H154.296Z" fill="#2213B9"/>
<path fill-rule="evenodd" clip-rule="evenodd" d="M166.191 16.65H164.091V31.35H171.09V29.649H166.191V16.65Z" fill="#2213B9"/>
</svg>
