<svg width="174" height="290" viewBox="0 0 174 290" fill="none" xmlns="http://www.w3.org/2000/svg">
<path d="M144.833 237C159.317 237 171.167 248.85 171.167 263.333C171.167 277.817 159.317 289.667 144.833 289.667C130.35 289.667 118.5 277.817 118.5 263.333C118.5 248.85 130.35 237 144.833 237ZM144.833 0C159.317 0 171.167 11.85 171.167 26.3333C171.167 40.8167 159.317 52.6667 144.833 52.6667C130.35 52.6667 118.5 40.8167 118.5 26.3333C118.5 11.85 130.35 0 144.833 0ZM65.8333 197.5C80.3167 197.5 92.1667 209.35 92.1667 223.833C92.1667 238.317 80.3167 250.167 65.8333 250.167C51.35 250.167 39.5 238.317 39.5 223.833C39.5 209.35 51.35 197.5 65.8333 197.5ZM26.3333 118.5C40.8167 118.5 52.6667 130.35 52.6667 144.833C52.6667 159.317 40.8167 171.167 26.3333 171.167C11.85 171.167 0 159.317 0 144.833C0 130.35 11.85 118.5 26.3333 118.5ZM65.8333 39.5C80.3167 39.5 92.1667 51.35 92.1667 65.8333C92.1667 80.3167 80.3167 92.1667 65.8333 92.1667C51.35 92.1667 39.5 80.3167 39.5 65.8333C39.5 51.35 51.35 39.5 65.8333 39.5ZM223.833 197.5C238.317 197.5 250.167 209.35 250.167 223.833C250.167 238.317 238.317 250.167 223.833 250.167C209.35 250.167 197.5 238.317 197.5 223.833C197.5 209.35 209.35 197.5 223.833 197.5ZM263.333 118.5C277.817 118.5 289.667 130.35 289.667 144.833C289.667 159.317 277.817 171.167 263.333 171.167C248.85 171.167 237 159.317 237 144.833C237 130.35 248.85 118.5 263.333 118.5ZM223.833 39.5C238.317 39.5 250.167 51.35 250.167 65.8333C250.167 80.3167 238.317 92.1667 223.833 92.1667C209.35 92.1667 197.5 80.3167 197.5 65.8333C197.5 51.35 209.35 39.5 223.833 39.5Z" fill="white" fill-opacity="0.8"/>
<path d="M144.833 187.417C151.525 187.417 157 192.892 157 199.583C157 206.275 151.525 211.75 144.833 211.75C138.142 211.75 132.667 206.275 132.667 199.583C132.667 192.892 138.142 187.417 144.833 187.417ZM144.833 77.9168C151.525 77.9168 157 83.3918 157 90.0835C157 96.7751 151.525 102.25 144.833 102.25C138.142 102.25 132.667 96.7751 132.667 90.0835C132.667 83.3918 138.142 77.9168 144.833 77.9168ZM108.333 169.167C115.025 169.167 120.5 174.642 120.5 181.333C120.5 188.025 115.025 193.5 108.333 193.5C101.642 193.5 96.1665 188.025 96.1665 181.333C96.1665 174.642 101.642 169.167 108.333 169.167ZM90.0832 132.667C96.7748 132.667 102.25 138.142 102.25 144.833C102.25 151.525 96.7748 157 90.0832 157C83.3915 157 77.9165 151.525 77.9165 144.833C77.9165 138.142 83.3915 132.667 90.0832 132.667ZM108.333 96.1668C115.025 96.1668 120.5 101.642 120.5 108.333C120.5 115.025 115.025 120.5 108.333 120.5C101.642 120.5 96.1665 115.025 96.1665 108.333C96.1665 101.642 101.642 96.1668 108.333 96.1668ZM181.333 169.167C188.025 169.167 193.5 174.642 193.5 181.333C193.5 188.025 188.025 193.5 181.333 193.5C174.642 193.5 169.166 188.025 169.166 181.333C169.166 174.642 174.642 169.167 181.333 169.167ZM199.583 132.667C206.275 132.667 211.75 138.142 211.75 144.833C211.75 151.525 206.275 157 199.583 157C192.891 157 187.416 151.525 187.416 144.833C187.416 138.142 192.891 132.667 199.583 132.667ZM181.333 96.1668C188.025 96.1668 193.5 101.642 193.5 108.333C193.5 115.025 188.025 120.5 181.333 120.5C174.642 120.5 169.166 115.025 169.166 108.333C169.166 101.642 174.642 96.1668 181.333 96.1668Z" fill="white" fill-opacity="0.8"/>
</svg>
