<svg width="199" height="358" viewBox="0 0 199 358" fill="none" xmlns="http://www.w3.org/2000/svg">
<path d="M20 292.909C37.9 292.909 52.5455 307.555 52.5455 325.455C52.5455 343.355 37.9 358 20 358C2.10001 358 -12.5454 343.355 -12.5454 325.455C-12.5454 307.555 2.10001 292.909 20 292.909ZM20 0C37.9 0 52.5455 14.6455 52.5455 32.5455C52.5455 50.4455 37.9 65.0909 20 65.0909C2.10001 65.0909 -12.5454 50.4455 -12.5454 32.5455C-12.5454 14.6455 2.10001 0 20 0ZM-77.6364 244.091C-59.7364 244.091 -45.0909 258.736 -45.0909 276.636C-45.0909 294.536 -59.7364 309.182 -77.6364 309.182C-95.5364 309.182 -110.182 294.536 -110.182 276.636C-110.182 258.736 -95.5364 244.091 -77.6364 244.091ZM-126.455 146.455C-108.555 146.455 -93.9091 161.1 -93.9091 179C-93.9091 196.9 -108.555 211.545 -126.455 211.545C-144.355 211.545 -159 196.9 -159 179C-159 161.1 -144.355 146.455 -126.455 146.455ZM-77.6364 48.8182C-59.7364 48.8182 -45.0909 63.4636 -45.0909 81.3636C-45.0909 99.2636 -59.7364 113.909 -77.6364 113.909C-95.5364 113.909 -110.182 99.2636 -110.182 81.3636C-110.182 63.4636 -95.5364 48.8182 -77.6364 48.8182ZM117.636 244.091C135.536 244.091 150.182 258.736 150.182 276.636C150.182 294.536 135.536 309.182 117.636 309.182C99.7364 309.182 85.0909 294.536 85.0909 276.636C85.0909 258.736 99.7364 244.091 117.636 244.091ZM166.455 146.455C184.355 146.455 199 161.1 199 179C199 196.9 184.355 211.545 166.455 211.545C148.555 211.545 133.909 196.9 133.909 179C133.909 161.1 148.555 146.455 166.455 146.455ZM117.636 48.8182C135.536 48.8182 150.182 63.4636 150.182 81.3636C150.182 99.2636 135.536 113.909 117.636 113.909C99.7364 113.909 85.0909 99.2636 85.0909 81.3636C85.0909 63.4636 99.7364 48.8182 117.636 48.8182Z" fill="white" fill-opacity="0.8"/>
<path d="M20 235.636C28.9 235.636 36.1818 242.918 36.1818 251.818C36.1818 260.718 28.9 268 20 268C11.1 268 3.81818 260.718 3.81818 251.818C3.81818 242.918 11.1 235.636 20 235.636ZM20 90C28.9 90 36.1818 97.2818 36.1818 106.182C36.1818 115.082 28.9 122.364 20 122.364C11.1 122.364 3.81818 115.082 3.81818 106.182C3.81818 97.2818 11.1 90 20 90ZM-28.5455 211.364C-19.6455 211.364 -12.3636 218.645 -12.3636 227.545C-12.3636 236.445 -19.6455 243.727 -28.5455 243.727C-37.4455 243.727 -44.7273 236.445 -44.7273 227.545C-44.7273 218.645 -37.4455 211.364 -28.5455 211.364ZM-52.8182 162.818C-43.9182 162.818 -36.6364 170.1 -36.6364 179C-36.6364 187.9 -43.9182 195.182 -52.8182 195.182C-61.7182 195.182 -69 187.9 -69 179C-69 170.1 -61.7182 162.818 -52.8182 162.818ZM-28.5455 114.273C-19.6455 114.273 -12.3636 121.555 -12.3636 130.455C-12.3636 139.355 -19.6455 146.636 -28.5455 146.636C-37.4455 146.636 -44.7273 139.355 -44.7273 130.455C-44.7273 121.555 -37.4455 114.273 -28.5455 114.273ZM68.5455 211.364C77.4454 211.364 84.7273 218.645 84.7273 227.545C84.7273 236.445 77.4454 243.727 68.5455 243.727C59.6454 243.727 52.3636 236.445 52.3636 227.545C52.3636 218.645 59.6454 211.364 68.5455 211.364ZM92.8182 162.818C101.718 162.818 109 170.1 109 179C109 187.9 101.718 195.182 92.8182 195.182C83.9182 195.182 76.6364 187.9 76.6364 179C76.6364 170.1 83.9182 162.818 92.8182 162.818ZM68.5455 114.273C77.4454 114.273 84.7273 121.555 84.7273 130.455C84.7273 139.355 77.4454 146.636 68.5455 146.636C59.6454 146.636 52.3636 139.355 52.3636 130.455C52.3636 121.555 59.6454 114.273 68.5455 114.273Z" fill="white" fill-opacity="0.8"/>
</svg>
